/* XPM */
static char * Coll_xpm[] = {
"32 32 3 1",
" 	c #2F3255",
".	c #FAFA82",
"+	c #E17B50",
"                                ",
"                                ",
"                                ",
"                                ",
"                                ",
"                                ",
"                                ",
"                                ",
"                                ",
"                                ",
"                                ",
"         ..                     ",
"        ....                    ",
"       ..  ..                   ",
"       ..  ..                   ",
"       ..  ..+..+........       ",
"       ..  ..+..++++..+.+       ",
"       ..  ..       . ..        ",
"       ..  ..       . ..        ",
"        ....          ..        ",
"         ..                     ",
"                                ",
"                                ",
"                                ",
"                                ",
"                                ",
"                                ",
"                                ",
"                                ",
"                                ",
"                                ",
"                                "};
