/* XPM */
static char * Gob_idle_right_xpm[] = {
"152 38 17 1",
" 	c #2F3255",
".	c #4D4F5A",
"+	c #303138",
"@	c #41424A",
"#	c #2B3B18",
"$	c #53732C",
"%	c #ECFF00",
"&	c #884931",
"*	c #1D290E",
"=	c #6A331E",
"-	c #C9DBB4",
";	c #BBC29C",
">	c #3F1C0E",
",	c #919970",
"'	c #D4D4D4",
")	c #28292D",
"!	c #908C8C",
"                                                                                                                                                        ",
"                      .                                                                                                                                 ",
"                      +@@                                    @                                     @                                                    ",
"              #$       +@                                    @@                                    @@                                                   ",
"              ##$$$    ++@    $                     #$       +@                           #$       +@                                                   ",
"               ###$$$  $++$   $                     ##$$$    ++@    $                     ##$$$    ++@    $                     #$       @@             ",
"                ###$$#$$$$$$ $#                      ###$$$  $++$   $                      ###$$$  $++$   $                     ##$$$   +++@    $       ",
"                 ###$$#$$$$$#$#                       ###$$#$$$$$$ $#                       ###$$#$$$$$$ $#                      ###$$$  $++$   $       ",
"                  ###$#%%#$%$##                        ###$$#$$$$$#$#                        ###$$#$$$$$#$#                       ###$$#$$$$$$ $#       ",
"                   ####%%##%##                          ###$#%%#$%$##                         ###$#%%#$%$##                        ###$$#$$$$$#$#       ",
"                    ####$$####                           ####%%##%##                           ####%%##%##                          ###$#%%#$%$##       ",
"                &&&&#*###$$$#                             ####$$####                            ####$$####                           ####%%##%##        ",
"            $$$$$#&=#*-*##$$                          &&&&#*###$$$#                         &&&&#*###$$$#                         &&&&####$$####        ",
"          $$$#####&&=#**###$                      $$$$$#&=#*-*##$$                      $$$$$#&=#*-*##$$                      $$$$$#&=#*###$$$#         ",
"         $$#######=&&##-*###                    $$$#####&&=#**###$                    $$$#####&&=#**###$                    $$$#####&&#*-*##$$          ",
"        ;$##    ==&&&=##*-*#                   $$#######=&&##-*###                   $$#######=&&##-*###                   $$#######=&&#**###$          ",
"   >>  ;;,#     =&&&&==#@@##$                 ;$##    ==&&&=##*-*#                  ;$##    ==&&&=##*-*#                  ;$##    ==&&&=#-*###          ",
"   >>>;;,,       &&&&&==@+=##$           >>  ;;,#     =&&&&==#@@##$            >>  ;;,#     =&&&&==#@@##$            >>  ;;,#     =&&&&=##*-*#$         ",
"    $$$,         &&&====+== ##$          >>>;;,,       &&&&&==@+=##$           >>>;;,,       &&&&&==@+=##$           >>>;;,,       &&&&&=#@@###$        ",
"    #$$$#         ========   ##$$$        $$$,         &&&====+== ##$           $$$,         &&&====+== ##$           $$$,         &&&====@+= ##$       ",
"     ####        @>>>>>>>      ###$$      #$$$#         ========   ##$$$        #$$$#         ========   ##$$$        #$$$#         ======+=   ##$$$    ",
"     ##>'      @@@)======@      $$##       ####        @)>>>>>>      ###$$       ####        @)>>>>>>      ###$$       ####        @)>>>>>>      ###$$  ",
"      >!'    @@@@@)&&&&==@@@    $# #       ##>'      @@@)======@      $$##       ##>'      @@@)======@      $$##       ##>'      @@@)======@      $$##  ",
"      '!!'   @@@)))&&&==)@@@@   #           >!'     @@@@)&&&&==@@@    $# #        >!'     @@@@)&&&&==@@@    $# #        >!'     @@@@)&&&&==@@@    $# #  ",
"       '!'  @@@@))))&===)@@@@@              '!!'   @@@@)))&&&==@@@@@  #           '!!'   @@@@)))&&&==@@@@@  #           '!!'   @@@@))&&&&=)@@@@@  #     ",
"        '!' @@@)))))&==)))@@@@@              '!'  @@@@)))))&&==@@@@@@              '!'  @@@@)))))&&==@@@@@@              '!'  @@@@)))&&&=))@@@@@@       ",
"         '!!@@))))))===)))@@@@@@              '!' @@@@)))) &===)@@@@@@              '!' @@@@)))) &===)@@@@@@              '!' @@@@)))&&==)))@@@@@@      ",
"          '!'))))))&==   )))@@))               '!!@@@))))) ===))@@@@))               '!!@@@))))) ===))@@@@))               '!!@@@)))))&=  ))@@@@))      ",
"           '!!'))) ==     ))@)))                '!'))))))   == )))@)))                '!'))))))   == )))@)))                '!')))))) &=   )))@)))      ",
"          &&=)!')  =     ===&===                 '!!')))    =  ===&===                 '!!')))    =  ===&===                 '!!')))  &=   ===&===      ",
"          &&==))         ==&&==                 &&==!')     =  ==&&===                &&==!')     =  ==&&===                &&==!')    &&  ==&&===      ",
"         &&&==          &&&&=                   &&====         ==&&=                  &&====         ==&&=                  &&====         ==&&=        ",
"         &&===          &&&=                   &&====         &&&&=                  &&====         &&&&=                  &&====         &&&&=         ",
"         &&==           &&=                    &&===          &&&=                   &&===          &&&=                   &&===          &&&=          ",
"        &&==            &===                  &&===           &===                  &&===           &===                  &&===           &===          ",
"      &&&==             =====               &&&===            =====               &&&===            =====               &&&===            =====         ",
"     &&&===               ====             &&&===             ======             &&&===             ======             &&&===             ======        ",
"                                                                                                                                                        "};
