/* XPM */
static char * Gob_walk_left_xpm[] = {
"266 38 17 1",
" 	c #2F3255",
".	c #4D4F5A",
"+	c #41424A",
"@	c #303138",
"#	c #53732C",
"$	c #2B3B18",
"%	c #ECFF00",
"&	c #D4D4D4",
"*	c #1D290E",
"=	c #C9DBB4",
"-	c #884931",
";	c #6A331E",
">	c #908C8C",
",	c #3F1C0E",
"'	c #919970",
")	c #BBC29C",
"!	c #28292D",
"                                                       .                                     .                                  ++@                                                                            .                                  .                       ",
"              +@@      #$                            ++@                                   ++@                                  +@       #$                          +@@      #$                             ++@                                ++@                       ",
"        #    +@@    ###$$                            +@       #$                           +@       #$                    #    +@@    ###$$                    #    +@@    ###$$                             +@       #$                        +@       #$               ",
"        #   #@@#  ###$$$                       #    +@@    ###$$                     #    +@@    ###$$                    #   #@@#  ###$$$                     #   #@@#  ###$$$                        #    +@@    ###$$                  #    +@@    ###$$               ",
"        $# ######$##$$$                        #   #@@#  ###$$$                      #   #@@#  ###$$$                     $# ######$##$$$                      $# ######$##$$$                         #   #@@#  ###$$$                   #   #@@#  ###$$$                ",
"        $#$#####$##$$$                         $# ######$##$$$                       $# ######$##$$$                      $#$#####$##$$$                       $#$#####$##$$$                          $# ######$##$$$                    $# ######$##$$$                 ",
"        $$#%#$%%$#$$$                          $#$#####$##$$$                        $#$#####$##$$$                       $$#%#$%%$#$$$                        $$#%#$%%$#$$$                           $#$#####$##$$$                     $#$#####$##$$$                  ",
"         $$%$$%%$$$$                           $$#%#$%%$#$$$                         $$#%#$%%$#$$$                         $$%$$%%$$$$                          $$%$$%%$$$$                            $$#%#$%%$#$$$                      $$#%#$%%$#$$$                   ",
"         $$$$##$$$$                             $$%$$%%$$$$                           $$%$$%%$$$$                  &&      $$$$##$$$$                           $$$$##$$$$                              $$%$$%%$$$$                        $$%$$%%$$$$                    ",
"          $###$$$*$                             $$$$##$$$$                            $$$$##$$$$                   &&       $###$$$*$                            $###$$$*$                              $$$$##$$$$                         $$$$##$$$$                     ",
"           ##$$*=*$                              $###$$$*$                             $###$$$*$                  &&&&       ##$$*=*$$                            ##$$*=*$                               $###$$$*$                          $###$$$*$                     ",
"           #$$$**$$$$                             ##$$*=*$                              ##$$*=*$                  &&&&       #$$$**$$$$$$                         #$$$**$$$$                              ##$$*=*$----                       ##$$*=*$----                 ",
"           $$$*=$$;$$$                            #$$$**$$$$                            #$$$**$$$$                 >&&       $$$*=$$;$$$$$                        $$$*=$$;##$                             #$$$**$$;-$##                      #$$$**$$;-$#####             ",
"           $*=*$$$-$#$                            $$$*=$$;##$                           $$$*=$$;$$$               &>&&       $*=*$$$#$;$$$                        $*=*$$$-##$                             $$$*=$$;--$$##                     $$$*=$$;--$$$$$#             ",
"           $$++$$;--$#                            $*=*$$$-#$$                  &        $*=*$$$-$#$               &&>&&      $$++$$#$--;$$$                       $$++$$;-##;                             $*=*$$$--;$$##                     $*=*$$$--;$$$$$$##           ",
"            $@+$;;--$#                            $$++$$;##-;                  >&       $$++$$;##$;                &>&&&      $@+#$$---- $$$                       $@+$;;-##-                             $$++$$;---;;$#                     $$++$$;---;;  $$$##          ",
"            ;;@;;---$#                             $@+$;;#$--                  &&&       $@+$;;#$--                &>>&       ;;@#$-----$$$$                       ;;@;;--##-                              $@+$;;----;$##                     $@+$;;----;    $$#          ",
"      $#    ;;;;;;;-$##                            ;;@;;-#$--                   &>&      ;;@;;#$$--                 &>$&##    ;#$$$;;---$$$$                       ;;;;;;;##-                              ;;@;;-----  $#                     ;;@;;-----      $##         ",
"      $$#$  #;;;;;;;;$#                            ;;;;;;#$--$                  &>&&     ;;;;;#$---$                 ,$#,#   $##$;;;;;;  $                          ;;;;;;#$                               ;;;;;;;---  $##                 ## ;;;;;;;---       '#         ",
"      $$$$$#$$,,,,,,,$##                 >&&        ;;;;;#$;$$                  &&>>      ;;;;#$;;$$                  $##))))''$,,,,,,,                            !!,,,,,#$                                ;;;;;;;;   $##                ####$;;;;;;;;        $)         ",
"       $$$$$$  +++++!!$#                 &>&&      !!,,,##$,$$                    &&>&   !!,,$#,,,$$                  $$#,)' '$!;;;;;+++                   &&      !!;;;;;#$+                              !!,,,,,,,    '#                $$$$$ ,,,,,,,        '))        ",
"             ++++++++!''                  &>>&&    !!;++)''+                       &&>$&##!))''+++                      $))' !!!;;---++++                  &&&&   !!!;;--$'$++                             !!;;;;;;++  $)'                 $$$  ;;;;;;++        ') ,,     ",
"            +++++++++!''                   &&>>&&& !!;+)''++                        &&$#,#))''!+++                      #, ,!!!!!;;--!++++                  &>&&  !!!!;--))'++                            !!!;;--++!!  ')                   $$  ;;--++!!!      $'#,,,     ",
"           +++++++!+!''',,                  &&&>>>$&##))'+++                           $##,)'!++++                      #, ,!!!!!!;;-!+++++                 &&>&&&&&!##;)'+++++                           !!!;;++++!!! '''                       ;++++!!!     $$##$#,     ",
"           ++++++!!-#'',,,,                    &&&$####),,,                            $$$),,,!+++                         !!!!!!;;;;!!!++++                  &>>&>&&&,)))'+++++                          !!!;;++++!$$'') ,                       ++++!!!     &,$$$       ",
"           ++++!&!;###)),                         !$$$$),,,                           !!!!#,,,!!++                         !!!!!  ;;;-!!!!+++-                &&&>>>$###,)!,++++                          !!!!&&&++&&,##,,,                      +++++!!!    &&$$$        ",
"           ++!!&&$&##$$##                         !$$$+##;-                           !!!!!#;!!!++--                      ;!!!!    ;;-!!!!!!;;-----              &&;,$$$$,,!!+++!                         &&>>>>&&>&$$$$$#,                      ++++!!!!;;&&>>,;         ",
"        &&&&&&&>>&$$$$!!                          !+++!!-;-                            !!!!!;!!!!-------                  ;;!!!       !!!!!!;;;----               ;;;;$  #,!!!+++                         !!&&&>>>>>,$$;                         ++++!!!!&&&>>&;;         ",
"       &>>>>>>>>&& $$!!!!!                         +!!!;---                            !!!!! !!!!;------                 ;;;;!         !!!!!;;;;;-;                ;;;;;; !!!!!!!-                         !!!&&&&&!!!;;                         +++!!!!>>>>&&;;;         ",
"        &&&&&&&&&   !!!!!!;;                       !!!;;;--                            !!!!! !!!!;;;;--;                 ;;;;;           !!!;;;;;;;                 ;;;;; !!!!!;;-                          !;;++!!!!!;                          ++!!!>>&&&&;;;;;         ",
"            --;;     !!!!;;;;;                      !!;;;;--                            ;;;!  !!!;;;;;;;                 ;;;;                  ;;;;                  ;;;;   !!!;;--                         ;;; +!!;;-;                           ++;&&&&;;  ;;;;         ",
"            --;;-      !;;;;;;                       ;;;;;---                           ;;;;        ;;;;               ;;;;;;                   ;;;                  ;;;     ;;;;---                            ;;;;;-;                           ---;;;;      ;;         ",
"            --;;;        ;;;;;;                      ;;;;;;;                            ;;;;         ;;;            ;;;;;;;;;                     ;                 ;;;;       ;;;---                            ;;;;--                           ---;;;       ;;         ",
"           --;;;          ;;;;;;                      ;;;;;;                            ;;;;           ;             ;;;;;;;                                        ;;;         --;;;                             ;;;--                            --;;;        ;         ",
"           ;;;             ;;;;                       ;;;;;                             ;;;;                                                                       ;;;          -;;;                               ;;;-                            --;;;                  ",
"                           ;;                        ;;;;;                             ;;;;;                                                                                    -;;                              ---;;;                          ---;;;                   ",
"                          ;;                        ;;;;;;                            ;;;;;;                                                                                    ;;                               ---;;;                          ---;;;                   ",
"                                                                                                                                                                                                                                                                          "};
