/* XPM */
static char * Idle_left_xpm[] = {
"266 38 21 1",
" 	c None",
".	c #1B1B1B",
"+	c #8E251D",
"@	c #C64524",
"#	c #C7CFDD",
"$	c #92A1B9",
"%	c #657392",
"&	c #131313",
"*	c #3D3D3D",
"=	c #0098DC",
"-	c #E69C69",
";	c #FFFFFF",
">	c #F6CA9F",
",	c #424C6E",
"'	c #5D2C28",
")	c #391F21",
"!	c #571C27",
"~	c #2A2F4E",
"{	c #FFA214",
"]	c #ED7614",
"^	c #FFC825",
"                                                                                                                                                                                                                                                                          ",
"                                                                                                                                                                                                                                                       ....               ",
"                   ....                                                                                                                                                                                          ....                                 .++@@.              ",
"                  .++@@.                                  ....                                                                                                             ....                                 .++@@.                            ....++@@@@.             ",
"              ....++@@@@.                                .++@@.                                ....                                  ....                                 .++@@..                           ....++@@@@.                          .##$$%++@@@.             ",
"             .##$$%++@@@.                            ....++@@@@.                              .++@@.                                .++@@..                           ....++@@@@@.                         .##$$%++@@@@.                        .$%###$%++@@@.            ",
"            .$%###$%++@@@.                          .##$$%++@@@.                          ....++@@@@.                           ....++@@@@@.                         .##$$%++@@@@@.                       .$%###$%++@@@.                       .$%#%###$%++@@.            ",
"           .$%#%###$%++@@.                         .$%###$%++@@@.                        .##$$%++@@@@.                         .##$$%++@@@@@.                       .$%###$%++@@@@.                      .$%#%###$%++@@@.                     .$%###$$##$%+@@.            ",
"          .$%###$$##$%+@@.                        .$%#%###$%++@@.                       .$%###$%++@@@.                        .$%###$%++@@@@.                      .$%#%###$%++@@@@.                    .$%###$$##$%++@@.                     .%$&#&##%$%%+@@@.           ",
"          .%$&#&##%$%%+@@@.                      .$%###$$##$%+@@.                      .$%#%###$%++@@@.                      .$%#%###$%++@@@@.                    .$%###$$##$%.+@@@.                    .%$&#&##%$%%.+@@@.                    .%$&#&#&#%$%++@@.           ",
"          .%$&#&#&#%$%++@@.                      .%$&#&##%$%%+@@@.                    .$%###$$##$%++@@.                     .$%###$$##$%.+@@@.                    .%$&#&##%$%%..+@@@.                   .%$&#&#&#%$%.++@@.                     .$*#*#*#%$%.+@.            ",
"           .$*#*#*#%$%.+@.                       .%$&#&#&#%$%++@@.                    .%$&#&##%$%%.+@@@.                    .%$&#&##%$%%..+@@@.                   .%$&#&#&#%$%..++@@.                    .$*#*#*#%$%..+@.                       .=--=;%%%..++.            ",
"            .=--=;%%%..++.                        .$*#*#*#%$%.+@.                     .%$&#&#&#%$%.++@@.                    .%$&#&#&#%$%..++@@.                    .$*#*#*#%$%. .+@.                      .=--=;%%%. .++.                      .$-->>$$%. ..+.            ",
"           .$-->>$$%+...+.                         .=--=;%%%..++.                      .$*#*#*#%$%..+@.                      .$*#*#*#%$%. .+@.                      .=--=;%%%.  .++.                     .$-->>$$%. . .+.                      .$%->>$%++.#.+.            ",
"           .$%->>$%+$##.+.                        .$-->>$$%+...+.                       .=--=;%%%. .++.                       .=--=;%%%.  .++.                     .$-->>$$%.    .++.                    .$%->>$%++.#..+.                       ..+@@@++$###++.           ",
"            .,@@@++%$###++.                       .$%->>$%+$##.+.                      .$-->>$$%+.. .+.                      .$-->>$$%+..  .++.                    .$%->>$%++..   .+.                     ..+@@@++$###.++.                      .,@@@++%$###$+.           ",
"            .,$@+++%$$##$+.                        .,@@@++%$###++.                     .$%->>$%+$##..+.                      .$%->>$%+$##.  .+.                     ..+@@@++$##.  .++.                    .,@@@++%$###$.+.                   ....,$@+++%$$$$%.            ",
"         ....,$#$$$%%$$$%.                         .,$@+++%$$##$+.                      .,@@@++%$###.++.                      .,@@@++%$###. .++.                    .,@@@++%$###.. .+.                 ....,$@+++%$$$$%..                   .$$$%,$#$$$%%$%%#.            ",
"        .$$$%.$###$$%%%%#@.                        .,$#$$$%%$$$%.                       .,$@+++%$$##$.+.                      .,$@+++%$$##$. .+.                    .,$@+++%$$##$@.......             .$$$%,$#$$$%%$%%#@@..                .$''))%$###$$%%$##%.           ",
"       .$''))%$##$$%%,$##%@.                    .....$###$$%%%%#.                    ....,$#$$$%%$$$%..                    ....,$#$$$%%$$$%.  .                  ....,$#$$$%%$$$%@@@@@@@@..          .$''))%$###$$%%$##%@@@.              .$''')),$##$$%%,$%%#@.          ",
"      .$''')),$##$$%,!$%%#@@.                  .$$$%.$##$$%%,$##.                   .$$$%.$###$$%%%%#.                    .$$$%.$###$$%%%%#@..                  .$$$%.$###$$%%%%#+++++@@@@@.        .$''')),$##$$%%,$%%#@@@@.             .$''')%,$##$$%,!!$##@@.         ",
"      .$''')%,,$$$%%,!!$##@@.                 .$''))%$##$$%,,$##%.                 .$''))%$##$$%%,$##%.                  .$''))%$##$$%%,$##%@@.......          .$''))%$##$$%%,$##%++++++@@@@.       .$''')%,$##$$%,!!$##++@@@.            .$'')~,,,$$$%%,!!$#+@@@.        ",
"      .$'')~,,,$$%%,,!!$#+@@.                .$''')),,$$$%%,!$%%#.                .$''')),$##$$%,!$%%#.                 .$''')),$##$$%,!$%%#+@@@@@@@@..       .$''')),$##$$%,!$%%#+++++++@@@.       .$'')~,,,$$$%%,!!$#++++@@@.           .$''%%~,%$$%%{{!!%%]+@@@.       ",
"      .$''%%~,%++++{{!!%%]+@@.               .$''')%,,$$%%,,!!$##.                .$''')%,,$$$%%,!!$##@.    ...         .$''')%,,$$$%%,!!$##+++@@@@@@@@.      .$''')%,,$$$%%,!!$##+++++++@@@.       .$''%%~,%$$%%{{!!%%]++++@@@.          .$''%,,)%+++++#{$$#]+@@@.       ",
"      .$''%,,)+@@@++#{$$#]+@@.               .$'')~,,,++++++!!$#@.                .$'')~,,,$$%%,,!!$#+@@....@@@.        .$'')~,,,$$%%,,!!$#+++++++@@@@@.      .$'')~,,,$$%%,,!!$#+++.....@@.        .$''%,,)%+++++#{$$#]+++++@@@.         .$'),,))+@@@###{$##+++@@@.      ",
"      .$'),,)+@@@@###{$##++@@.               .$''%%~,+@@@+{{+!%%]@..              .$''%%~,%++++{{!!%%]+@@@@@@@@.        .$''%%~,%++++{{!!%%]+++++++@@@.       .$''%%~,%++++{{!!%%]+.    .@.         .$'),,))+@@@###{$##..++++@@@.          .$))))+@@###;;#^..+++@@@.      ",
"       .$))))+%%###;;#^++++@@.               .$''%,,+@@@@@+#{$$#]@@@..            .$''%,,)+@@@++#{$$#]++@@@@@@@.        .$''%,,)+@@@++#{$$#]+++++....@.       .$''%,,)+@@@++#{$$#]+.     .           .$))))+@@###;;#^++. ..++@@@.          .%))))+###;;;++^. .++@@@.      ",
"       .%)))+%###;;;++^.+++@@.               .$'),,)+%%@@###{$##++@@@@..          .$'),,)+@@@@###{$##++++++@@@.         .$'),,)+@@@@###{$##++++..    .        .$'),,)+@@@@###{$##..                  .%))))+###;;;++^+.    .+@@.            .%))###;;;@++++.  .+@@@.      ",
"        .%))###;;;+$+++..++@@.                .$)))+%%%###;;#^!++++@@@@@.          .$))))+%%###;;#^+++++++++..           .$))))+%%###;;#^+++++.                .$))))+%%###;;#^..                     .%))###;;;@++++.      .@@.             .%##;;;%..$+++.   .@@.       ",
"         .%##;;;....$%+#.+@@.                 .%))),%###;;;++^+!+++++@@.           .%)))+%###;;;++^+++++++..             .%)))+%###;;;++^.....                 .%)))+%###;;;++^.                       .%##;;;...$+++.      .@.               .;;;,%.  .$%+#.  .@@.       ",
"          .;;;,%.   .$##..@@.                  .%)$###;;;..$%+#!!++....             .%)$###;;;.$+++!+++...                .%)$###;;;.$+++.                      .%)$###;;;.$+++.                        .;;;%.   .$%+#.      .                 .$$,%.   .$##.  .@.        ",
"           .$$%.    .$$#$.@.                    .%##;;;..  .$##....                  .%##;;;.. .$%+#...                    .%##;;;.. .$%+#.                      .%##;;;.. .$%+#.                       .$$,%.    .$##.                        .$$%.    .$$#$.  .         ",
"           .%%.      .$$$..                      .;;;..    .$$#$.                     .;;;%.    .$##.                       .;;;%.    .$##.                       .;;;%.    .$##.                       .$$%.     .$$#$.                       .%%.      .$$$.            ",
"           .%%.       .$$.                        .%%.      .$$$.                      .%%.     .$$#$.                       .%%.     .$$#$.                       .%%.     .$$#$.                       .%%.      .$$$.                       .%%.       .$$.            ",
"          .,,%.       .$%$.                      .,,%.       .$%.                     .,,%.      .$$%.                      .,,%.      .$$%.                      .,,%.      .$$%.                      .,,%.       .$%.                      .,,%.       .$%$.           ",
"         .%%%,.       .%$#.                     .%%%,.       .%$#.                   .%%%,.       .%$#.                    .%%%,.       .%$#.                    .%%%,.       .%$#.                    .%%%,.       .%$#.                    .%%%,.       .%$#.           ",
"        .$$$%%.       .$###.                   .$$$%%.       .$###.                 .$$$%%.       .$###.                  .$$$%%.       .$###.                  .$$$%%.       .$###.                  .$$$%%.       .$###.                  .$$$%%.       .$###.          ",
"         .....         ....                     .....         ....                   .....         ....                    .....         ....                    .....         ....                    .....         ....                    .....         ....           "};
