/* XPM */
static char * Walk_right_xpm[] = {
"304 38 21 1",
" 	c #2F3255",
".	c #1B1B1B",
"+	c #C64524",
"@	c #8E251D",
"#	c #657392",
"$	c #92A1B9",
"%	c #C7CFDD",
"&	c #131313",
"*	c #3D3D3D",
"=	c #FFFFFF",
"-	c #0098DC",
";	c #E69C69",
">	c #F6CA9F",
",	c #424C6E",
"'	c #391F21",
")	c #5D2C28",
"!	c #2A2F4E",
"~	c #FFC825",
"{	c #571C27",
"]	c #FFA214",
"^	c #ED7614",
"                                                                                                                                                                                                                                                                                                                ",
"                                                    ....                                                                                                                                                       ....                                                                                             ",
"                 ....                              .++@@.                                  ....                                                                         ....                                  .++@@.                             ....                                                           ",
"                .++@@.                            .++++@@....                             .++@@.                                  ....                                 .++@@.                                .++++@@....                        .++@@.                                  ....                    ",
"               .++++@@....                        .+++@@#$$%%.                           .++++@@....                            ..++@@.                               .++++@@....                            .+++@@#$$%%.                      .++++@@....                            ..++@@.                   ",
"               .+++@@#$$%%.                      .+++@@#$%%%#$.                         .++++@@#$$%%.                          .+++++@@....                           .+++@@#$$%%.                          .+++@@#$%%%#$.                    .++++@@#$$%%.                          .+++++@@....               ",
"              .+++@@#$%%%#$.                     .++@@#$%%%#%#$.                        .+++@@#$%%%#$.                        .+++++@@#$$%%.                         .+++@@#$%%%#$.                         .++@@#$%%%#%#$.                   .+++@@#$%%%#$.                        .+++++@@#$$%%.              ",
"              .++@@#$%%%#%#$.                    .++@#$%%$$%%%#$.                      .+++@@#$%%%#%#$.                       .++++@@#$%%%#$.                        .++@@#$%%%#%#$.                        .++@#$%%$$%%%#$.                 .+++@@#$%%%#%#$.                       .++++@@#$%%%#$.             ",
"              .++@#$%%$$%%%#$.                  .+++@##$#%%&%&$#.                      .++@@#$%%$$%%%#$.                     .++++@@#$%%%#%#$.                       .++@#$%%$$%%%#$.                      .+++@##$#%%&%&$#.                 .++@@#$%%$$%%%#$.                     .++++@@#$%%%#%#$.            ",
"             .+++@##$#%%&%&$#.                  .++@@#$#%&%&%&$#.                     .+++@.##$#%%&%&$#.                     .+++@.#$%%$$%%%#$.                     .+++@##$#%%&%&$#.                      .++@@#$#%&%&%&$#.                .+++@.##$#%%&%&$#.                     .+++@.#$%%$$%%%#$.           ",
"             .++@@#$#%&%&%&$#.                   .+@.#$#%*%*%*$.                      .++@@.#$#%&%&%&$#.                    .+++@..##$#%%&%&$#.                     .++@@#$#%&%&%&$#.                       .+@.#$#%*%*%*$.                 .++@@.#$#%&%&%&$#.                    .+++@..##$#%%&%&$#.           ",
"              .+@.#$#%*%*%*$.                    .@@..###=-;;-.                        .+@..#$#%*%*%*$.                     .++@@..#$#%&%&%&$#.                      .+@.#$#%*%*%*$.                        .@@..###=-;;-.                   .+@..#$#%*%*%*$.                     .++@@..#$#%&%&%&$#.           ",
"              .@@..###=-;;-.                     .@..@@#$$>>;;$.                       .@@. .###=-;;-.                       .+@. .#$#%*%*%*$.                       .@@..###=-;;-.                         .@.  .#$$>>;;$.                  .@@. .###=-;;-.                       .+@. .#$#%*%*%*$.            ",
"              .@. ..#$$>>;;$.                    .@.@@@@#$>>;#$.                       .@. .@@#$$>>;;$.                      .@@.  .###=-;;-.                        .@.  .#$$>>;;$.                        .@. .@@#$>>;#$.                  .@.   .#$$>>;;$.                      .@@.  .###=-;;-.             ",
"              .@..@@@#$>>;#$.                   .@@.+@@@+++@...                        .@..@@@@#$>>;#$.       ..            .@@.  .@@#$$>>;;$.                       .@. .@@#$>>;#$.                       .@@..%%$@+++@..                   .@.  .@@#$>>;#$.                     .@@.    .#$$>>;;$.            ",
"             .@@.@%%$+++@...                    .@#+++@$%%++.                         .@@..+@@@+++@...       .==.           .@.  .@@@@#$>>;#$.       ..             .@@..@@@@+++@..                        .@..%%%$#@+++.                   .@@. .%%$@+++@..                      .@.    .@@#$>>;#$.            ",
"             .@.+%%%$#+++.                      .#+++@#$%%%@.                         .@..++++@$%%+.        .==%.          .@@. .,,@@@+++@...       .==.            .@..+.%%$@+++.                          ..$%%$$#@@+$..                  .@...%%%$#@+++.....                  .@@.   .%%$@+++@..             ",
"              .+$%%$$#@+$..                   ..+++@@##$$%%$.                    .......+++@@@#$%%%.       .==%%.         .#@$$.,,++@@$%%+.        .==%.             ..++%%%$#@+$.                           .#$$$#$$$%$$$.                  ..+$%%$$#@@+$.#$$$.                 .@.   .%%%$#@+++. ....         ",
"             .++#$$$#$$%$$$.                 .++++@@####$$$#.         ...      ..++++++++@@@,,#$$%%$.     .==%%.         .#''))!,++,,#$%%%.       .==%%.              .+$%%$$#$%$.                           .%###$$%%%$))$.                 .++#$$$#$$$%$!''))$.                 .   .$%%$$#@@+$..#$$$.        ",
"            .+++@###$%%%$))$.               .++++@@@###$###.        ..===.    .+++++@@@@@@@,##,#$$$#.    .==%%.         .#'''),!++,#,#$$%%$.     .==%%.              .+@#$$$#%%%$.                          .#%$$,#$$%%$)))$.               .++%%###$$%%%$!#')))$.                   .%#$$$#$$$%$##''))$.       ",
"           .+++@%%$$$$%%$)))$.             .+++@@@@@@###%$$.      ..===%%.   .++++@@@@@@@@@,##,$###.  . .==%%.          .#''')+++@###,#$$$#.    .==%%.              .++@@###$$%%$.      ...                 .%##,,##$$$')))$.               .+#%$$,,#$$%%$,#')))$.                  .#%$###$$%%%$!#'')))$.      ",
"          .+++@@#$$##$$$,)))$.            .+++@@@@@@@##,%%$#..  ..===%%%.    .+++@@@@@@@@@@,##,%$$$. .~.==%%.        ....#''+++@@@###,$###.  . .==%%.       ...    .++@@@%$$#$$$.     ..===.               .+%$$,,,##$$#'))$.              .++%#${,,##$$$,,,#'))$.                 .%#$$$,,#$$%%$,,#')))$.      ",
"         .+++@@$$##,##$$,'))$.           .+++@@@@@@@{,,,,##$$~..===%%%..     .+++@@@@@@@@@@,#,,,%%##..~%=%%.       ..++++++++@@@@@@##,%$$.  .~.==%%.       .+++....++@@@@%%$##$$.   ..===%%.               .+%%${,,,###!'))$.              .+%$${{,,,##$$#,,!##)$.               ..+%$#@@,,##$$$!,,,#'))$.      ",
"         .+++@@%$$,,,##,,#))$.          .+++@@@@@@@{@@@@@@%$$#%==%%%..        .++...#'@@@@@,,,,,,#$$$.]]%%.       .++++++++@@@@@@@@#,,%%##. .~%=%%.        .++++++++@@@@{,##$###. ..===%%%.              ..++@##{@@@@@!,#))$.             .++%${{{@,,,####',!,#)$.              .^++%$@@@,,,##$$.#,,!##)$.      ",
"        .+++@@@@%$@@@@@,,#))$.          .+++@@@@.#{@@@@+++@%#$]%%%..           .+. .#''@@@{@@@@@@.%$$#$]].        .+++++@@@@@@@@@@{,,,,#%$$..]]%%.         .+++++++@@@@{@,,%$$)~..===%%%..             ..+++@^%$$@]]++@,#')$.             .^+##{{@@@@@@@.#''',,)$.               .^%##@@@{,,,###.#''!,,)$.      ",
"        .+++@@^^##]]+++@##')$.          .+++@@.. .{@@@+++++^%$]%..              .  .#''@@{@@@@+++@.%#$$.]].        .+++@@@@@@@@@@{@@@@@@%%$#$$]].           .+++@@@@@@@{@@@@%##~%==%%%..             ..++++@@^%%$]%++++@#'$.              .+%%$]{@@@@++@@.#''''$.               .+%%$$]@{@@@@@@..#''',,)$.      ",
"        .+++@@^%%$%+++++@''$.            .++@.   .@@@++++##^%%.]].                  .#''''@@@+++++@..%$...         .+....@@@@@@@{@@@@+++@.%#%$.]].           ..@@@@@@@{@@@++@$$$]%%%..              .+++++@@@@{%%]%%%@#@''#.              .+%$]{@@@@++++@.#''''#.               .+%$$]@.@@@@+++@..#''''$.       ",
"        .+++@..%$]%%%+##@''#.            .++.    .@@@+++####@. ..                   .#''''@@++++##@.^..             .    ..@@@@@{@@@+++++@..%%...              ..@@@@@{@@+++^%$$]%..                 .++@@@@@@{@~%==%%%#@#.               .+]]%%.@@+++++@..#''#.                .++]]%%@@@@++++@..#''''#.       ",
"         .++. .@~%==%%%##@#.              .+.   .@@@+$$..#,$$.                       .#''@@@+++####@.                      ..@@{@@@++++##@.^..                   ...@@{@@++$^,%$.]].                  ....@@@{@@~@+===%%%..               .+~%=%%@@++$$$@. .##.                 .++~%=%%@@++++@#@..#''#.        ",
"         .++..@@~+$===%%%#.                .    .@.$$$$. .#$$.                        .#@@@++$.####.                         ...@@@++...##@.                        ....@+,,,$$. ..                       ...{@###...===%%%.               .~+==%%+##$$$$.  ..                   .+~.==%%@++$$$##. .##.         ",
"          .+..@.#%%##===%%%.                     ..$#%$..##$.                          .@#$$$. .##,$.                         .@@@+$.  .#,$$.                          .@####$.                              .,,$#..$$%===%%.              .++.==%%#..$$$%.                      .++.,==%%#..$#%%.  ..          ",
"           .  .#$%%##..===%%.                     .#%%..,,#.                            .##%$.  .,#$$.                       .$@%#$.    .,$$.                         ..#$$%%#.                              .#$$..$#$...===.               .+.#==%%. .$#%%.                      .+##@==%%. .#%%.              ",
"              .#$$%#.  ..===.                    .$$%%.###.                            .$$%%.    .##$. .                    .$$$%%.     .#$$.                        .$#$$%%%.                              .##$$.$$$.   ...                 .##$==%%. .#$%. .                    .##$$$==%%..$$%.              ",
"              .#.$$.     ...                     .$$$..##$.                            .$$%.      .##,.$.                  .#$$%..      .##.                        .$$#$$$..                               .###. .$$.                       .###.==%%. .$$$.%.                  .#,#$...==%%..$$.              ",
"              .#.$#.                            .$##.  .#$$.                          .$,$.       .#,#$$.                 .$$##.        .#,,.                       .%$.#,,.                               .#,,.   .%%.                     .#,#. .==%.  .$#$%.                 .###,.   .==%..$#.              ",
"               ..#$$.                           .$$$.   ...                          .$$$.         .###.                   .$$.         .,###.                      .%..,###.                              .##$.    ..                     .###.   .==.  .#$$.                  .###.     .==..#$$.             ",
"                .$$%%.                           .$%%.                                .$%%.        .##.                     .%%.        .##$$$.                      . .##$$$.                              .##$.                           .#$$.   ..   .$$.                    .#$$.     .. .$$%%.            ",
"                 ....                             ...                                  ...          ..                       ..          .....                          .....                                ...                             ...          ..                      ...          ....             "};
